<svg viewBox="0 0 1200 800" xmlns="http://www.w3.org/2000/svg">
  <defs>
    <linearGradient id="baseTableGradient" x1="0%" y1="0%" x2="0%" y2="100%">
      <stop offset="0%" style="stop-color:#E3F2FD;stop-opacity:1" />
      <stop offset="100%" style="stop-color:#BBDEFB;stop-opacity:1" />
    </linearGradient>
    <linearGradient id="mvGradient" x1="0%" y1="0%" x2="0%" y2="100%">
      <stop offset="0%" style="stop-color:#E8F5E8;stop-opacity:1" />
      <stop offset="100%" style="stop-color:#C8E6C9;stop-opacity:1" />
    </linearGradient>
    <linearGradient id="queryGradient" x1="0%" y1="0%" x2="0%" y2="100%">
      <stop offset="0%" style="stop-color:#FFF3E0;stop-opacity:1" />
      <stop offset="100%" style="stop-color:#FFE0B2;stop-opacity:1" />
    </linearGradient>
    <linearGradient id="processGradient" x1="0%" y1="0%" x2="0%" y2="100%">
      <stop offset="0%" style="stop-color:#F3E5F5;stop-opacity:1" />
      <stop offset="100%" style="stop-color:#E1BEE7;stop-opacity:1" />
    </linearGradient>
  </defs>
  
  <!-- 标题 -->
  <text x="600" y="30" text-anchor="middle" font-size="22" font-weight="bold" fill="#1976D2">Apache Doris 物化视图工作原理</text>
  
  <!-- 基表 -->
  <rect x="50" y="60" width="300" height="150" fill="url(#baseTableGradient)" stroke="#1976D2" stroke-width="2" rx="5"/>
  <text x="200" y="80" text-anchor="middle" font-size="14" font-weight="bold" fill="#1976D2">基表 (Base Table)</text>
  <text x="200" y="100" text-anchor="middle" font-size="12" fill="#1976D2">sales_fact</text>
  
  <!-- 基表结构 -->
  <rect x="70" y="120" width="260" height="80" fill="white" stroke="#ddd" stroke-width="1"/>
  <text x="75" y="135" font-size="10" fill="#333" font-weight="bold">order_id | customer_id | product_id | sales_amount | order_date | region</text>
  <text x="75" y="150" font-size="9" fill="#666">1001     | 501         | 2001       | 500.0        | 2024-01-15 | North</text>
  <text x="75" y="165" font-size="9" fill="#666">1002     | 502         | 2002       | 300.0        | 2024-01-16 | South</text>
  <text x="75" y="180" font-size="9" fill="#666">1003     | 503         | 2001       | 800.0        | 2024-01-17 | East</text>
  <text x="75" y="195" font-size="9" fill="#666">... (百万级数据)</text>
  
  <!-- 物化视图创建 -->
  <rect x="400" y="60" width="350" height="150" fill="url(#mvGradient)" stroke="#4CAF50" stroke-width="2" rx="5"/>
  <text x="575" y="80" text-anchor="middle" font-size="14" font-weight="bold" fill="#2E7D32">物化视图创建</text>
  
  <!-- MV定义 -->
  <rect x="420" y="100" width="310" height="100" fill="white" stroke="#4CAF50" stroke-width="1" rx="3"/>
  <text x="425" y="115" font-size="10" fill="#2E7D32" font-weight="bold">CREATE MATERIALIZED VIEW sales_by_region AS</text>
  <text x="425" y="130" font-size="10" fill="#2E7D32">SELECT</text>
  <text x="440" y="145" font-size="10" fill="#2E7D32">region,</text>
  <text x="440" y="160" font-size="10" fill="#2E7D32">SUM(sales_amount) as total_sales,</text>
  <text x="440" y="175" font-size="10" fill="#2E7D32">COUNT(*) as order_count</text>
  <text x="425" y="190" font-size="10" fill="#2E7D32">FROM sales_fact GROUP BY region;</text>
  
  <!-- 物化视图存储 -->
  <rect x="800" y="60" width="300" height="150" fill="url(#mvGradient)" stroke="#4CAF50" stroke-width="2" rx="5"/>
  <text x="950" y="80" text-anchor="middle" font-size="14" font-weight="bold" fill="#2E7D32">物化视图存储</text>
  <text x="950" y="100" text-anchor="middle" font-size="12" fill="#2E7D32">sales_by_region (MV)</text>
  
  <!-- MV数据 -->
  <rect x="820" y="120" width="260" height="80" fill="white" stroke="#4CAF50" stroke-width="1"/>
  <text x="825" y="135" font-size="10" fill="#2E7D32" font-weight="bold">region | total_sales | order_count</text>
  <text x="825" y="150" font-size="9" fill="#2E7D32">North  | 1,250,000   | 2,500</text>
  <text x="825" y="165" font-size="9" fill="#2E7D32">South  | 980,000     | 1,960</text>
  <text x="825" y="180" font-size="9" fill="#2E7D32">East   | 1,580,000   | 3,160</text>
  <text x="825" y="195" font-size="9" fill="#2E7D32">West   | 720,000     | 1,440</text>
  
  <!-- 箭头1: 基表到MV定义 -->
  <path d="M 350 135 L 400 135" stroke="#FF6B35" stroke-width="2" marker-end="url(#arrowhead)"/>
  <text x="360" y="125" font-size="10" fill="#FF6B35" font-weight="bold">分析查询模式</text>
  
  <!-- 箭头2: MV定义到存储 -->
  <path d="M 750 135 L 800 135" stroke="#FF6B35" stroke-width="2" marker-end="url(#arrowhead)"/>
  <text x="760" y="125" font-size="10" fill="#FF6B35" font-weight="bold">预计算存储</text>
  
  <!-- 查询优化过程 -->
  <rect x="50" y="240" width="1100" height="120" fill="url(#queryGradient)" stroke="#FF9800" stroke-width="2" rx="5"/>
  <text x="600" y="260" text-anchor="middle" font-size="16" font-weight="bold" fill="#F57C00">查询优化与重写过程</text>
  
  <!-- 原始查询 -->
  <rect x="70" y="280" width="200" height="60" fill="white" stroke="#FF9800" stroke-width="1" rx="3"/>
  <text x="170" y="295" text-anchor="middle" font-size="10" fill="#E65100" font-weight="bold">用户查询</text>
  <text x="75" y="310" font-size="9" fill="#E65100">SELECT region,</text>
  <text x="75" y="325" font-size="9" fill="#E65100">  SUM(sales_amount)</text>
  <text x="75" y="340" font-size="9" fill="#E65100">FROM sales_fact</text>
  <text x="75" y="355" font-size="9" fill="#E65100">GROUP BY region</text>
  
  <!-- 优化器 -->
  <rect x="300" y="280" width="150" height="60" fill="#FFB74D" stroke="#FF9800" stroke-width="1" rx="3"/>
  <text x="375" y="300" text-anchor="middle" font-size="11" fill="white" font-weight="bold">查询优化器</text>
  <text x="305" y="315" font-size="9" fill="white">1. 解析SQL</text>
  <text x="305" y="330" font-size="9" fill="white">2. 匹配物化视图</text>
  <text x="305" y="345" font-size="9" fill="white">3. 成本评估</text>
  
  <!-- 重写后查询 -->
  <rect x="480" y="280" width="200" height="60" fill="white" stroke="#FF9800" stroke-width="1" rx="3"/>
  <text x="580" y="295" text-anchor="middle" font-size="10" fill="#E65100" font-weight="bold">重写后查询</text>
  <text x="485" y="310" font-size="9" fill="#E65100">SELECT region,</text>
  <text x="485" y="325" font-size="9" fill="#E65100">  total_sales</text>
  <text x="485" y="340" font-size="9" fill="#E65100">FROM sales_by_region</text>
  <text x="485" y="355" font-size="9" fill="#E65100">(直接读取MV)</text>
  
  <!-- 性能对比 -->
  <rect x="710" y="280" width="200" height="60" fill="white" stroke="#FF9800" stroke-width="1" rx="3"/>
  <text x="810" y="295" text-anchor="middle" font-size="10" fill="#E65100" font-weight="bold">性能提升</text>
  <text x="715" y="310" font-size="9" fill="#E65100">原查询: 扫描百万行</text>
  <text x="715" y="325" font-size="9" fill="#E65100">MV查询: 读取4行</text>
  <text x="715" y="340" font-size="9" fill="#E65100">性能提升: 1000x</text>
  
  <!-- 执行结果 -->
  <rect x="940" y="280" width="180" height="60" fill="#4CAF50" stroke="#FF9800" stroke-width="1" rx="3"/>
  <text x="1030" y="300" text-anchor="middle" font-size="11" fill="white" font-weight="bold">执行结果</text>
  <text x="945" y="315" font-size="9" fill="white">毫秒级响应</text>
  <text x="945" y="330" font-size="9" fill="white">资源消耗极低</text>
  <text x="945" y="345" font-size="9" fill="white">用户体验优秀</text>
  
  <!-- 箭头: 查询流程 -->
  <path d="M 270 310 L 300 310" stroke="#FF6B35" stroke-width="2" marker-end="url(#arrowhead)"/>
  <path d="M 450 310 L 480 310" stroke="#FF6B35" stroke-width="2" marker-end="url(#arrowhead)"/>
  <path d="M 680 310 L 710 310" stroke="#FF6B35" stroke-width="2" marker-end="url(#arrowhead)"/>
  <path d="M 910 310 L 940 310" stroke="#FF6B35" stroke-width="2" marker-end="url(#arrowhead)"/>
  
  <!-- 数据更新机制 -->
  <rect x="50" y="390" width="550" height="160" fill="url(#processGradient)" stroke="#9C27B0" stroke-width="2" rx="5"/>
  <text x="325" y="410" text-anchor="middle" font-size="16" font-weight="bold" fill="#7B1FA2">数据更新与维护机制</text>
  
  <!-- 更新流程 -->
  <rect x="70" y="430" width="120" height="50" fill="#AB47BC" stroke="white" stroke-width="1" rx="3"/>
  <text x="130" y="445" text-anchor="middle" font-size="10" fill="white" font-weight="bold">基表数据变更</text>
  <text x="130" y="460" text-anchor="middle" font-size="9" fill="white">INSERT/UPDATE</text>
  <text x="130" y="475" text-anchor="middle" font-size="9" fill="white">DELETE</text>
  
  <rect x="220" y="430" width="120" height="50" fill="#AB47BC" stroke="white" stroke-width="1" rx="3"/>
  <text x="280" y="445" text-anchor="middle" font-size="10" fill="white" font-weight="bold">变更检测</text>
  <text x="280" y="460" text-anchor="middle" font-size="9" fill="white">监控基表</text>
  <text x="280" y="475" text-anchor="middle" font-size="9" fill="white">标记失效</text>
  
  <rect x="370" y="430" width="120" height="50" fill="#AB47BC" stroke="white" stroke-width="1" rx="3"/>
  <text x="430" y="445" text-anchor="middle" font-size="10" fill="white" font-weight="bold">增量更新</text>
  <text x="430" y="460" text-anchor="middle" font-size="9" fill="white">计算变更</text>
  <text x="430" y="475" text-anchor="middle" font-size="9" fill="white">应用到MV</text>
  
  <rect x="70" y="500" width="510" height="40" fill="white" stroke="#9C27B0" stroke-width="1" rx="3"/>
  <text x="75" y="515" font-size="10" fill="#7B1FA2" font-weight="bold">更新策略:</text>
  <text x="75" y="530" font-size="9" fill="#7B1FA2">• 异步更新: 后台任务定期刷新  • 增量更新: 只处理变更数据  • 智能调度: 根据查询频率优化</text>
  
  <!-- 箭头: 更新流程 -->
  <path d="M 190 455 L 220 455" stroke="#E91E63" stroke-width="2" marker-end="url(#arrowhead2)"/>
  <path d="M 340 455 L 370 455" stroke="#E91E63" stroke-width="2" marker-end="url(#arrowhead2)"/>
  
  <!-- 物化视图类型 -->
  <rect x="650" y="390" width="500" height="160" fill="#F1F8E9" stroke="#689F38" stroke-width="2" rx="5"/>
  <text x="900" y="410" text-anchor="middle" font-size="16" font-weight="bold" fill="#33691E">物化视图类型与应用</text>
  
  <!-- 聚合MV -->
  <rect x="670" y="430" width="140" height="50" fill="#8BC34A" stroke="white" stroke-width="1" rx="3"/>
  <text x="740" y="445" text-anchor="middle" font-size="10" fill="white" font-weight="bold">聚合物化视图</text>
  <text x="740" y="460" text-anchor="middle" font-size="9" fill="white">GROUP BY + 聚合函数</text>
  <text x="740" y="475" text-anchor="middle" font-size="9" fill="white">适用: 报表查询</text>
  
  <!-- 连接MV -->
  <rect x="830" y="430" width="140" height="50" fill="#8BC34A" stroke="white" stroke-width="1" rx="3"/>
  <text x="900" y="445" text-anchor="middle" font-size="10" fill="white" font-weight="bold">连接物化视图</text>
  <text x="900" y="460" text-anchor="middle" font-size="9" fill="white">多表JOIN结果</text>
  <text x="900" y="475" text-anchor="middle" font-size="9" fill="white">适用: 复杂关联</text>
  
  <!-- 投影MV -->
  <rect x="990" y="430" width="140" height="50" fill="#8BC34A" stroke="white" stroke-width="1" rx="3"/>
  <text x="1060" y="445" text-anchor="middle" font-size="10" fill="white" font-weight="bold">投影物化视图</text>
  <text x="1060" y="460" text-anchor="middle" font-size="9" fill="white">列子集 + 过滤</text>
  <text x="1060" y="475" text-anchor="middle" font-size="9" fill="white">适用: 列裁剪</text>
  
  <!-- 应用场景 -->
  <rect x="670" y="500" width="460" height="40" fill="white" stroke="#689F38" stroke-width="1" rx="3"/>
  <text x="675" y="515" font-size="10" fill="#33691E" font-weight="bold">典型应用场景:</text>
  <text x="675" y="530" font-size="9" fill="#33691E">• BI报表加速  • 实时大屏  • 数据API  • OLAP分析  • 数据集市</text>
  
  <!-- 优化建议 -->
  <rect x="50" y="580" width="1100" height="80" fill="#E8EAF6" stroke="#3F51B5" stroke-width="2" rx="5"/>
  <text x="600" y="600" text-anchor="middle" font-size="16" font-weight="bold" fill="#3F51B5">设计与优化建议</text>
  
  <text x="70" y="620" font-size="11" fill="#303F9F">• 选择合适的聚合粒度: 平衡存储成本与查询性能</text>
  <text x="70" y="635" font-size="11" fill="#303F9F">• 考虑查询模式: 基于高频查询创建物化视图</text>
  <text x="70" y="650" font-size="11" fill="#303F9F">• 监控更新成本: 避免过于频繁的基表更新影响性能</text>
  
  <text x="600" y="620" font-size="11" fill="#303F9F">• 层次化设计: 构建多级物化视图满足不同查询需求</text>
  <text x="600" y="635" font-size="11" fill="#303F9F">• 分区对齐: 物化视图分区策略与基表保持一致</text>
  <text x="600" y="650" font-size="11" fill="#303F9F">• 定期维护: 清理过期物化视图，优化存储空间</text>
  
  <!-- 性能指标 -->
  <rect x="50" y="680" width="1100" height="80" fill="#FFF8E1" stroke="#FFC107" stroke-width="2" rx="5"/>
  <text x="600" y="700" text-anchor="middle" font-size="16" font-weight="bold" fill="#FF8F00">性能提升效果</text>
  
  <rect x="80" y="720" width="150" height="30" fill="#FFB300" stroke="white" stroke-width="1" rx="3"/>
  <text x="155" y="740" text-anchor="middle" font-size="11" fill="white" font-weight="bold">查询延迟: 99% ↓</text>
  
  <rect x="250" y="720" width="150" height="30" fill="#FFB300" stroke="white" stroke-width="1" rx="3"/>
  <text x="325" y="740" text-anchor="middle" font-size="11" fill="white" font-weight="bold">CPU使用: 95% ↓</text>
  
  <rect x="420" y="720" width="150" height="30" fill="#FFB300" stroke="white" stroke-width="1" rx="3"/>
  <text x="495" y="740" text-anchor="middle" font-size="11" fill="white" font-weight="bold">I/O量: 90% ↓</text>
  
  <rect x="590" y="720" width="150" height="30" fill="#FFB300" stroke="white" stroke-width="1" rx="3"/>
  <text x="665" y="740" text-anchor="middle" font-size="11" fill="white" font-weight="bold">并发能力: 10x ↑</text>
  
  <rect x="760" y="720" width="150" height="30" fill="#FFB300" stroke="white" stroke-width="1" rx="3"/>
  <text x="835" y="740" text-anchor="middle" font-size="11" fill="white" font-weight="bold">用户体验: 显著提升</text>
  
  <rect x="930" y="720" width="150" height="30" fill="#FFB300" stroke="white" stroke-width="1" rx="3"/>
  <text x="1005" y="740" text-anchor="middle" font-size="11" fill="white" font-weight="bold">系统负载: 大幅降低</text>
  
  <!-- 箭头定义 -->
  <defs>
    <marker id="arrowhead" markerWidth="10" markerHeight="7" refX="9" refY="3.5" orient="auto">
      <polygon points="0 0, 10 3.5, 0 7" fill="#FF6B35"/>
    </marker>
    <marker id="arrowhead2" markerWidth="10" markerHeight="7" refX="9" refY="3.5" orient="auto">
      <polygon points="0 0, 10 3.5, 0 7" fill="#E91E63"/>
    </marker>
  </defs>
</svg>
